<svg width="150" height="35" viewBox="0 0 116 35" fill="none" xmlns="http://www.w3.org/2000/svg">
    <rect x="64.5" y="16.3" width="14.8" height="15" fill="#5880ff"/>
    <rect x="88" y="16.3" width="14.8" height="15" fill="#5880ff"/>
    <path transform="matrix(1,0,0,1,0,0)" d="M 67.8 28 C 68.8 29.2 70.3 29.7 71.8 29.7 C 73.5 29.7 74.8 29.2 75.8 28 C 77 27 77.5 25.4 77.5 23.5 C 77.5 21.6 77 20.2 75.8 19 C 74.8 18 73.5 17.4 71.8 17.4 C 70.3 17.4 68.8 18 67.8 19 C 66.5 20.2 66 21.6 66 23.5 C 66 25.4 66.5 27 67.8 28 Z M 63.3 15.5 C 65.5 13.3 68.5 12.2 71.8 12.2 C 75.3 12.2 78 13.3 80.3 15.5 C 82.5 17.6 83.5 20.2 83.5 23.5 C 83.5 26.8 82.5 29.6 80.3 31.7 C 78 34 75.3 35 71.8 35 C 68.5 35 65.5 34 63.3 31.7 C 61 29.6 60 26.8 60 23.5 C 60 20.2 61 17.6 63.3 15.5 Z"
        fill="black"/>
    <path
        d="M 91.7 28 C 92.8 29.2 94.2 29.7 95.8 29.7 C 97.3 29.7 98.7 29.2 99.8 28 C 100.8 27 101.5 25.4 101.5 23.5 C 101.5 21.6 100.8 20.2 99.8 19 C 98.7 18 97.3 17.4 95.8 17.4 C 94.2 17.4 92.8 18 91.7 19 C 90.5 20.2 90 21.6 90 23.5 C 90 25.4 90.5 27 91.7 28 Z M 87.3 15.4 C 89.5 13.3 92.3 12.2 95.8 12.2 C 99.2 12.2 102 13.3 104.2 15.4 C 106.5 17.6 107.5 20.2 107.5 23.5 C 107.5 26.8 106.5 29.6 104.2 31.8 C 102 34 99.2 35 95.8 35 C 92.3 35 89.5 34 87.3 31.8 C 85 29.6 83.8 26.8 83.8 23.5 C 83.8 20.2 85 17.6 87.3 15.4 Z"
        fill="black" />

    <text font-weight="900" font-size="33" x="-17.1" y="35.1" textLength="23.4"
       
        fill="black">
        A
    </text>
    <text font-weight="900" font-size="33" x="6.9" y="35" textLength="20.4" fill="black">I</text>
    <text font-weight="900" x="16.6" y="34.9" textLength="20.4" font-size="33" fill="black">R</text>
    <text font-weight="900" x="38.5" y="35.1" textLength="20.4" font-size="33" fill="black">T</text>
    <text font-weight="900" x="106" y="34.9" textLength="20.4" font-size="33" fill="black">N</text>
</svg>