<svg width="153" height="166" viewBox="0 0 153 166" fill="none" xmlns="http://www.w3.org/2000/svg">
<path d="M 7.2 12.6 H 11.6 V 14.5 H 7.2 V 19.4 H 5.2 V 14.5 H 0.8 V 12.6 H 5.2 V 8 H 7.2 V 12.6 Z" fill="#5880ff"/>
<path d="M 7.2 47.6 H 11.6 V 49.5 H 7.2 V 54.4 H 5.2 V 49.5 H 0.8 V 47.6 H 5.2 V 43 H 7.2 V 47.6 Z" fill="#e5e5e5"/>
<path d="M 7.2 82.6 H 11.6 V 84.5 H 7.2 V 89.4 H 5.2 V 84.5 H 0.8 V 82.6 H 5.2 V 78 H 7.2 V 82.6 Z" fill="#e5e5e5"/>
<path d="M 42.2 12.6 H 46.6 V 14.5 H 42.2 V 19.4 H 40.2 V 14.5 H 35.8 V 12.6 H 40.2 V 8 H 42.2 V 12.6 Z" fill="#e5e5e5"/>
<path d="M 42.2 47.6 H 46.6 V 49.5 H 42.2 V 54.4 H 40.2 V 49.5 H 35.8 V 47.6 H 40.2 V 43 H 42.2 V 47.6 Z" fill="#e5e5e5"/>
<path d="M 42.2 82.6 H 46.6 V 84.5 H 42.2 V 89.4 H 40.2 V 84.5 H 35.8 V 82.6 H 40.2 V 78 H 42.2 V 82.6 Z" fill="#e5e5e5"/>
<path d="M 42.2 117.6 H 46.6 V 119.5 H 42.2 V 124.4 H 40.2 V 119.5 H 35.8 V 117.6 H 40.2 V 113 H 42.2 V 117.6 Z" fill="#e5e5e5"/>
<path d="M 77.2 12.6 H 81.6 V 14.5 H 77.2 V 19.4 H 75.2 V 14.5 H 70.8 V 12.6 H 75.2 V 8 H 77.2 V 12.6 Z" fill="#e5e5e5"/>
<path d="M 77.2 47.6 H 81.6 V 49.5 H 77.2 V 54.4 H 75.2 V 49.5 H 70.8 V 47.6 H 75.2 V 43 H 77.2 V 47.6 Z" fill="#e5e5e5"/>
<path d="M 77.2 82.6 H 81.6 V 84.5 H 77.2 V 89.4 H 75.2 V 84.5 H 70.8 V 82.6 H 75.2 V 78 H 77.2 V 82.6 Z" fill="#2d00f7"/>
<path d="M 77.2 117.6 H 81.6 V 119.5 H 77.2 V 124.4 H 75.2 V 119.5 H 70.8 V 117.6 H 75.2 V 113 H 77.2 V 117.6 Z" fill="#e5e5e5"/>
<path d="M 77.2 152.6 H 81.6 V 154.5 H 77.2 V 159.4 H 75.2 V 154.5 H 70.8 V 152.6 H 75.2 V 148 H 77.2 V 152.6 Z" fill="#e5e5e5"/>
<path d="M 112.2 12.6 H 116.6 V 14.5 H 112.2 V 19.4 H 110.2 V 14.5 H 105.8 V 12.6 H 110.2 V 8 H 112.2 V 12.6 Z" fill="#e5e5e5"/>
<path d="M 112.2 47.6 H 116.6 V 49.5 H 112.2 V 54.4 H 110.2 V 49.5 H 105.8 V 47.6 H 110.2 V 43 H 112.2 V 47.6 Z" fill="#e5e5e5"/>
<path d="M 112.2 82.6 H 116.6 V 84.5 H 112.2 V 89.4 H 110.2 V 84.5 H 105.8 V 82.6 H 110.2 V 78 H 112.2 V 82.6 Z" fill="#e5e5e5"/>
<path d="M 112.2 117.6 H 116.6 V 119.5 H 112.2 V 124.4 H 110.2 V 119.5 H 105.8 V 117.6 H 110.2 V 113 H 112.2 V 117.6 Z" fill="#e5e5e5"/>
<path d="M 112.2 152.6 H 116.6 V 154.5 H 112.2 V 159.4 H 110.2 V 154.5 H 105.8 V 152.6 H 110.2 V 148 H 112.2 V 152.6 Z" fill="#28b2ed"/>
<path d="M 147.2 12.6 H 151.6 V 14.5 H 147.2 V 19.4 H 145.2 V 14.5 H 140.8 V 12.6 H 145.2 V 8 H 147.2 V 12.6 Z" fill="#e5e5e5"/>
<path d="M 147.2 47.6 H 151.6 V 49.5 H 147.2 V 54.4 H 145.2 V 49.5 H 140.8 V 47.6 H 145.2 V 43 H 147.2 V 47.6 Z" fill="#e5e5e5"/>
<path d="M 147.2 82.6 H 151.6 V 84.5 H 147.2 V 89.4 H 145.2 V 84.5 H 140.8 V 82.6 H 145.2 V 78 H 147.2 V 82.6 Z" fill="#e5e5e5"/>
<path d="M 147.2 117.6 H 151.6 V 119.5 H 147.2 V 124.4 H 145.2 V 119.5 H 140.8 V 117.6 H 145.2 V 113 H 147.2 V 117.6 Z" fill="#e5e5e5"/>
<path d="M 147.2 152.6 H 151.6 V 154.5 H 147.2 V 159.4 H 145.2 V 154.5 H 140.8 V 152.6 H 145.2 V 148 H 147.2 V 152.6 Z" fill="#e5e5e5"/>
</svg>
