<svg width="385" height="12" viewBox="0 0 385 12" fill="none" xmlns="http://www.w3.org/2000/svg">
    <mask id="mask0" mask-type="alpha" maskUnits="userSpaceOnUse" x="0" y="0" width="385" height="12">
        <rect width="385" height="12" fill="#c4c4c4" />
    </mask>
    <g mask="url(#mask0)">
        <path
            d="M 57.8 -2.5 L 58.8 -2.7 L 56.9 -2.9 L 57.8 -3.1 C 58.7 -3.1 59.8 -2.8 60.5 -3 C 60.5 -3.1 59.6 -3.1 59.3 -3.2 C 59.1 -3.3 58.9 -3.5 58.8 -3.6 C 59.3 -3.6 59.8 -3.5 60.4 -3.5 C 61.1 -3.4 61.8 -3.4 62.4 -3.4 C 63.7 -3.4 64.9 -3.4 66.3 -3.4 L 65.9 -3.7 L 67.6 -3.6 C 67.8 -3.6 68.1 -3.6 68.2 -3.6 C 69.8 -3.3 70.4 -3.5 71.2 -3.6 C 71.3 -3.6 71.5 -3.6 71.7 -3.7 C 73.8 -3.6 75.7 -3.2 77.5 -3.1 C 77.9 -3 78.2 -3 78.5 -2.9 C 79.2 -2.8 79.9 -2.7 80.6 -2.6 C 81.3 -2.5 82 -2.5 82.7 -2.5 C 84.1 -2.5 85.6 -2.4 87.2 -2.2 C 87.7 -2.2 88.2 -2.1 88.6 -2.1 C 89.1 -2.1 89.5 -2.1 89.8 -2.2 L 90.9 -2 C 91.4 -2 92 -2.1 92.7 -2.1 C 93.3 -2.1 94.1 -2.1 94.9 -2 C 95.7 -1.9 96.6 -1.9 97.5 -1.8 C 99.3 -1.7 101 -1.6 102.7 -1.6 C 105.1 -1.5 107.5 -1.4 110 -1.3 C 111.6 -1.3 113.1 -1.2 114.5 -1.2 C 116.3 -1.2 118.2 -1.1 120.1 -1 C 120 -0.8 119.2 -0.8 118.6 -0.8 C 116.8 -0.9 114.9 -0.9 113 -1 C 112.1 -1 111.3 -1 110.5 -1 C 109.1 -1 107.7 -1.1 106.2 -1.1 C 103.9 -1.2 101.7 -1.3 99.5 -1.3 C 99.4 -1.2 99.2 -1.2 99.1 -1.2 C 99 -1.2 99 -1.2 99.1 -1.2 C 99.1 -1.2 99.1 -1.1 99.2 -1.1 C 99.2 -1.1 99.3 -1.1 99.4 -1.1 C 99.5 -1 99.6 -1 99.7 -1 C 100.5 -0.9 101.4 -0.8 102.2 -0.8 C 102.3 -0.8 102.3 -0.8 102.3 -0.8 C 102.4 -0.8 102.4 -0.8 102.4 -0.8 C 104.2 -0.5 105.7 -0.6 107.1 -0.5 C 109.4 -0.5 111.7 -0.4 113.8 -0.4 C 114.1 -0.4 114.5 -0.4 114.8 -0.4 C 117.1 -0.3 119.1 -0.3 121 -0.3 C 121.7 -0.4 122.4 -0.4 123.3 -0.4 C 123.8 -0.4 124.2 -0.4 124.5 -0.5 C 124.9 -0.5 125.1 -0.6 125.3 -0.7 C 125.6 -0.7 126 -0.6 126.3 -0.6 C 126.5 -0.6 126.7 -0.6 126.9 -0.6 C 127 -0.6 127.1 -0.6 127.1 -0.6 C 127.2 -0.7 126.7 -0.8 126.3 -0.8 C 126.5 -0.9 126.8 -0.9 127.1 -0.9 C 128.9 -0.9 130.7 -0.9 132.6 -0.8 C 134.1 -0.7 135.3 -0.8 136.9 -0.6 C 137.1 -0.6 137.3 -0.7 137.4 -0.7 C 137.9 -0.7 138.5 -0.7 139.1 -0.7 C 139.7 -0.7 140.4 -0.6 141 -0.5 C 141.9 -0.8 143.6 -0.5 144.9 -0.5 C 145.3 -0.3 144.9 -0.4 144.9 -0.3 C 144.8 -0.3 144.9 -0.3 144.7 -0.3 C 143.4 -0.2 141.6 -0.1 139.6 -0.2 C 139.2 -0.2 138.9 -0.2 138.5 -0.2 C 138 -0.2 137.4 -0.2 136.8 -0.2 C 136.2 -0.2 135.6 -0.2 135 -0.2 C 134.7 -0.2 134.5 -0.2 134.3 -0.1 C 134.1 -0.1 134 -0.1 134 0 C 134.2 0.1 134.4 0.1 134.6 0.1 C 135.9 0.3 137.1 0.3 138.1 0.3 C 139.8 0.2 141.9 0.3 143.8 0.3 C 145 0.3 146.3 0.3 147.7 0.4 C 147.7 0.4 147.7 0.4 147.7 0.4 C 147.8 0.5 148 0.5 148.2 0.5 C 148.2 0.5 148.2 0.5 148.2 0.5 C 148.1 0.4 148 0.4 147.9 0.4 L 147.5 0.3 C 147.8 0.3 148 0.3 148.3 0.3 C 148.9 0.4 149.5 0.4 150 0.4 C 150.6 0.4 151 0.3 151.4 0.3 C 152 0.2 152.7 0.2 153.6 0.2 C 154.3 0.2 154.9 0.1 155.5 0.1 C 155.5 0.1 155.6 0 155.9 0 C 155.6 0 155.3 -0.1 155 -0.1 C 153.8 -0.2 152.5 -0.2 151.3 -0.3 C 150.8 -0.3 150.4 -0.3 150 -0.2 C 149 -0.2 147.7 -0.3 146.5 -0.3 C 146.5 -0.3 146.2 -0.4 146.1 -0.4 C 146.4 -0.5 147.7 -0.4 148.2 -0.5 C 148.5 -0.5 149 -0.5 149 -0.5 C 149 -0.5 148.9 -0.6 149 -0.6 C 149 -0.6 149.1 -0.6 149.2 -0.7 C 149.3 -0.7 149.4 -0.7 149.6 -0.7 C 149.7 -0.7 149.9 -0.7 150 -0.7 C 151.4 -0.6 152.8 -0.5 153.9 -0.6 C 154.4 -0.6 154.9 -0.6 155.3 -0.6 C 155.6 -0.5 155.8 -0.5 156 -0.6 C 157.1 -0.7 158.5 -0.7 160.1 -0.6 C 160.8 -0.6 161.5 -0.5 162.2 -0.6 C 162.6 -0.6 162.8 -0.5 163.1 -0.5 L 164.4 -0.4 L 162.7 -0.3 C 163.1 0 163.4 0 164 0.1 C 164.9 0.1 165.7 0.1 166.5 0.1 C 167.2 0.1 167.7 0 168.5 0.1 C 168.6 0.1 168.8 0.1 168.9 0.1 C 169.9 0.1 171 0 172.3 0.1 C 173 -0.1 174.1 0.1 175.2 0.2 C 175.5 0.1 174.9 0 174.5 0 C 175.4 0 176.3 0 177.2 0 C 177.4 0 177.8 0 178.1 0 C 178.4 0 178.7 0.1 179.1 0.1 C 179.2 0.2 179.4 0.2 179.6 0.2 C 179.7 0.2 179.9 0.2 180 0.2 C 180.5 0.1 181.2 0.2 181.6 0.1 C 181.7 0.1 181.9 0.1 182.2 0.1 C 182.4 0.1 182.6 0.1 182.8 0.2 C 182.6 0.2 182.4 0.2 182.2 0.2 C 181.6 0.3 181.9 0.5 182.6 0.7 C 183.8 0.7 185 0.7 186 0.6 C 186.6 0.6 187.4 0.6 188.2 0.7 C 188.9 0.7 189.7 0.8 190.5 1 C 190.8 1 191.1 1.1 191.3 1.1 C 191.6 1.1 191.9 1.1 192 1 C 192.1 1 192.1 1 192.1 0.9 L 191.3 0.8 C 191.3 0.8 191.4 0.8 191.4 0.7 L 192.5 0.7 C 193 0.7 193.6 0.7 194.2 0.7 C 195 0.7 195.9 0.7 196.9 0.8 C 197.8 0.9 198.6 0.9 199.5 0.9 C 200.3 1 200.9 0.9 201.7 0.8 C 202.3 0.8 203 0.8 203.7 0.9 C 204.8 0.9 205.9 0.9 206.8 0.9 C 207.9 1.2 208.4 1.3 209.4 1.2 L 209.8 1.2 L 209.9 1.2 L 210.3 1.2 C 210.9 1.2 211.6 1.2 212.3 1.2 C 213.2 1.2 214.3 1.3 215.2 1.4 C 215.4 1.5 215.7 1.5 215.9 1.6 C 216 1.7 216.4 1.9 216.7 2 C 216.4 2.1 216 2.2 215.8 2.3 C 215.8 2.3 215.8 2.3 215.8 2.3 C 215.8 2.3 215.9 2.4 216 2.4 C 216 2.4 216.1 2.4 216.2 2.5 C 216.3 2.5 216.4 2.5 216.6 2.5 C 216.8 2.5 217 2.5 217.2 2.5 C 218.2 2.5 219.1 2.5 220 2.5 C 220.3 2.5 220.7 2.5 221.2 2.5 C 221.7 2.5 222.2 2.6 222.7 2.7 C 223.8 2.6 225.2 2.6 226.6 2.7 C 228.1 2.7 230 2.8 231.4 2.7 C 231.4 2.7 231.5 2.8 231.7 2.9 C 232 3 232.4 3 232.8 3.1 L 235.8 3.2 C 235.9 3.3 236.1 3.4 236.2 3.5 C 236.3 3.5 236.5 3.6 236.8 3.6 C 237 3.6 237.3 3.7 237.5 3.7 C 238.1 3.7 238.6 3.6 239.3 3.8 C 238.2 3.9 236.7 3.8 235.1 3.7 C 233.6 3.6 232.2 3.6 230.9 3.6 C 230.4 3.6 229.8 3.6 229.7 3.6 C 229.4 3.8 228.6 3.8 227.7 3.7 C 226.9 3.7 226.3 3.7 225.7 3.8 C 225.2 3.8 224.8 3.9 224.5 4 C 224.5 4.1 224.6 4.2 225.2 4.2 L 227.9 4.5 C 228.3 4.5 228.7 4.4 229 4.4 C 229.6 4.3 230.3 4.3 231.2 4.3 C 232 4.4 232.8 4.4 233.7 4.5 C 234.2 4.6 234.6 4.6 234.9 4.6 C 235.2 4.6 235.5 4.6 235.7 4.5 C 235.7 4.5 235.8 4.5 235.7 4.4 C 235.9 4.4 236.1 4.5 236.3 4.5 C 237.6 4.8 238.6 4.8 239.5 4.7 C 239.8 4.7 240 4.6 240.2 4.6 C 240.5 4.6 240.6 4.5 240.8 4.6 C 242.6 4.6 243.2 4.3 244.7 4.3 C 244.8 4.3 244.8 4.3 244.8 4.3 C 244.9 4.3 244.8 4.2 244.8 4.2 C 244.7 4.2 244.6 4.2 244.4 4.1 C 244.3 4.1 244.2 4.1 244 4.1 C 243.3 4.1 242.7 4.1 242.2 4.1 C 241.9 4.2 241.6 4.2 241.3 4.2 L 239.7 3.7 C 241.2 3.8 242.6 3.8 243.9 3.7 C 244.2 3.7 244.7 3.8 245.1 3.8 L 248.1 3.8 C 248.7 3.8 249.2 3.7 250 3.9 C 250 3.9 250.6 3.9 250.8 3.9 C 250.9 3.9 251.6 3.7 252 3.7 C 252.4 3.7 253.1 3.8 253.3 3.7 C 253.8 3.7 254.3 3.6 254.6 3.5 L 256.4 3.6 C 256.4 3.8 256.3 3.9 256.2 4 C 256.1 4.1 256.1 4.2 256.2 4.3 C 256.4 4.4 256.7 4.6 257.1 4.7 L 258.8 5.4 C 259.1 5.4 259.4 5.5 259.7 5.5 C 260 5.5 260.2 5.5 260.4 5.4 C 261.2 5.4 262 5.3 262.8 5.2 C 263.8 5.3 263.5 5.5 264.2 5.7 L 266.5 6 C 266.9 6.3 267.2 6.5 266.2 6.6 C 266 6.6 266.1 6.7 265.9 6.8 C 266.7 7 267.7 7 268.5 7.1 C 268.8 7.2 269.1 7.3 269.3 7.4 C 269.5 7.6 270 7.7 270.6 7.8 C 271.2 7.9 271.9 8 272.5 8 C 273.6 8.1 274.7 8.2 275.7 8.4 C 276.1 8.4 276.5 8.5 276.8 8.5 C 277.2 8.5 277.5 8.5 277.8 8.5 C 278.8 8.5 279.7 8.4 280.3 8.3 C 281 8.1 281.9 8.1 282.9 8.1 C 284.6 8.3 285 8.6 286 8.9 L 284.2 9 C 284.1 9.1 284.2 9.2 283.5 9.2 C 282.8 9.2 283.1 9.3 283.4 9.4 C 283.5 9.5 283.6 9.5 283.8 9.6 C 284.1 9.6 284.3 9.7 284.6 9.7 L 286.1 9.8 C 286.7 9.9 287.2 9.9 287.7 9.9 C 288.1 9.9 288.5 9.8 288.7 9.8 C 289 9.7 289.3 9.7 289.8 9.6 C 290.3 9.6 290.8 9.5 291.1 9.4 L 293.3 9.5 C 293.4 9.4 293.7 9.4 294.1 9.3 C 294.6 9.3 295.2 9.3 295.8 9.4 L 297.3 9.5 C 298.9 9.6 299.3 9.5 299.7 9.3 L 297.8 8.7 C 298.1 8.6 298.3 8.5 298.6 8.3 C 298.1 8.2 297.5 8 296.7 7.9 C 296 7.7 295.3 7.6 294.6 7.4 C 293.8 7.3 292.9 7.2 291.9 7 C 291.8 7 291.5 6.9 291.2 6.8 C 290.9 6.7 290.5 6.6 290.2 6.5 C 290.3 6.4 290.3 6.3 290.2 6.2 C 290.8 6.2 291.4 6.3 292 6.4 C 292.6 6.5 293.2 6.6 293.6 6.8 C 293.7 6.8 293.8 6.8 293.9 6.8 C 294 6.8 294.1 6.9 294.2 6.9 C 295.2 6.9 295.8 7.1 296.3 7.3 C 296.6 7.4 297.1 7.5 297.6 7.6 C 298.5 7.7 299.5 7.8 300.4 8 C 300.6 8 300.9 8.1 301.2 8.1 C 302.2 8.2 303.1 8.3 304 8.4 C 304.3 8.5 304.6 8.5 304.9 8.6 C 305.1 8.6 305.3 8.7 305.5 8.8 C 305.2 8.8 305.1 8.9 305.1 9 C 305.1 9.1 305.7 9.2 306 9.3 C 306.4 9.4 305.7 9.4 305.5 9.4 C 304.7 9.4 304.5 9.4 305 9.7 C 305.2 9.7 305.3 9.8 305.4 9.9 C 305.4 9.9 305.4 10 305.3 10 C 305.2 10.2 304.8 10.4 304.6 10.6 C 305 10.7 305.6 10.9 305.7 11 C 305.7 11.1 305.8 11.1 305.9 11.2 C 306 11.2 306.2 11.2 306.3 11.3 C 306.7 11.3 307.1 11.4 307.4 11.5 C 307.7 11.6 308 11.7 308.1 11.8 C 308.1 11.8 308.3 11.9 308.4 11.9 C 308.6 11.9 308.8 12 308.9 12 C 309.2 12 309.4 12 309.5 12 C 309.6 11.9 309.7 11.9 309.6 11.9 C 309.7 11.8 309.6 11.7 309.6 11.6 C 309.6 11.6 309.6 11.5 309.5 11.4 C 310.1 11.4 310.8 11.5 311.5 11.6 C 312.1 11.7 312.7 11.8 313.1 12 C 313.6 12.1 314.1 12.3 314.6 12.4 C 314.5 12.6 314.5 12.6 315.6 13 L 321.8 13.1 L 323 13.3 C 324.2 13.5 324.5 13.5 325.2 13.4 L 325.7 13.3 C 326.8 13.5 328 13.6 328.6 13.4 C 328.8 13.5 329 13.6 328.9 13.6 C 328.6 13.8 328.1 14 327.3 14.2 C 327.1 14.2 327 14.3 326.8 14.3 C 326.1 14.5 325.9 14.8 326.3 15.1 C 326.5 15.2 326.8 15.4 327.2 15.5 C 326.6 15.7 325.9 15.9 325 16 C 324.2 16.1 323.6 16.3 323.1 16.4 C 322.6 16.6 322 16.7 321.2 16.8 C 320.8 16.8 320.4 16.9 320.3 17 C 320.2 17.2 320.3 17.5 320.6 17.7 C 320.7 17.8 320.8 17.9 321 18 C 321.3 18.1 321.6 18.1 321.9 18.2 C 321.9 18.2 322.1 18.3 322.2 18.3 C 322.2 18.6 322 18.9 321.4 19.1 C 321.3 19.1 321.1 19.2 320.9 19.2 C 320.6 19.2 320.3 19.2 319.9 19.2 C 319.2 19.1 318.5 19.1 317.7 19.1 C 316.9 19.1 316.2 19.1 315.7 19.2 C 315.2 19.2 314.8 19.4 314.7 19.5 C 314.7 19.5 314.7 19.6 314.6 19.6 C 314.6 19.6 314.6 19.7 314.6 19.7 L 316.3 20.2 L 314.4 20.3 C 314.3 20.5 315.2 20.6 315.6 20.8 L 315.4 20.9 C 315 20.9 314.5 20.8 314.1 20.8 L 313.6 20.7 L 313.6 20.8 C 313.3 20.9 312.3 20.8 311.9 20.9 C 311.5 21 311.8 21.1 312.4 21.2 C 312.8 21.2 313.2 21.3 313.7 21.3 C 314.1 21.4 314.5 21.4 314.9 21.4 C 315.1 21.4 315.3 21.4 315.4 21.3 C 316.2 21.2 317.1 21.1 318 21 C 318.8 20.9 319.7 20.8 320.7 20.9 C 321 20.8 321.4 20.9 321.8 20.9 C 322.1 21 322.5 21 322.7 21.1 L 323.2 21.1 C 323.2 21.1 323.5 21.2 323.5 21.2 C 323.3 21.4 323.5 21.7 324.2 22 L 323.6 22 C 322.8 22 323.3 22.2 323.2 22.3 C 322.6 22.3 321.9 22.2 321.6 22.3 L 321.2 22.3 L 321.4 22.3 L 321.6 22.3 L 322.3 22.4 C 322 22.5 321.7 22.5 321.4 22.5 C 321.2 22.5 321.1 22.5 321 22.6 C 320.9 22.6 320.9 22.6 320.9 22.7 C 320.9 22.8 320.8 22.8 320.6 22.9 C 320.4 22.9 320.1 22.9 319.8 22.9 C 319.5 22.9 319.2 23 319 23 L 320 23.5 C 320 23.5 319.5 23.4 319.8 23.5 L 319.8 23.5 L 320.4 23.6 C 320.8 23.7 321.1 23.7 321.3 23.6 C 321.6 23.5 321.5 23.6 321.6 23.6 C 321.6 23.7 321.3 23.7 321.1 23.8 C 320.8 23.8 320.5 23.8 320.2 23.9 C 320.8 24.2 320.8 24.2 320 24.3 C 319.1 24.4 319.4 24.5 318.7 24.5 C 317.9 24.5 318.8 24.7 319.3 24.8 C 319.6 24.8 320 24.8 320.3 24.9 C 320.7 25 321 25 321.3 25.1 L 321.1 25.3 C 320.9 25.3 320.7 25.3 320.5 25.3 C 319.8 25.1 319.1 25 318.5 25.1 L 318.8 25.3 L 316.7 25.2 C 316.7 25.3 317 25.5 317.6 25.6 C 317.5 25.7 317.4 25.8 317.4 25.8 C 317.4 25.9 317.2 25.9 317 25.9 C 316.5 25.9 316.1 25.9 315.8 26 C 315.6 26.1 315.4 26.2 315.4 26.3 C 315.4 26.4 316.1 26.6 316.6 26.6 C 317.8 26.6 319.1 26.6 320.4 26.8 C 321.2 26.8 321.3 26.5 322.6 26.7 C 322.7 26.8 322.5 26.9 322.2 27 C 321.8 27 321.3 27 320.8 27 C 321.1 27.3 322.9 27.3 323 27.6 C 322.5 27.6 322 27.5 321.6 27.5 C 321.1 27.4 320.7 27.3 320.3 27.2 C 320.3 27.2 320.2 27.2 320.1 27.2 C 319.9 27.2 319.8 27.1 319.7 27.1 C 319.6 27.1 319.5 27.1 319.4 27.1 C 319.3 27.1 319.3 27.1 319.2 27.2 C 319.5 27.3 319.7 27.4 320.1 27.5 C 320.4 27.6 320.4 27.6 320.7 27.6 C 322.3 27.9 323.1 28.2 324.6 28.5 C 325 28.5 325 28.7 324.7 28.6 C 324.4 28.6 324.1 28.6 323.9 28.7 C 323.6 28.7 323.5 28.7 323.4 28.8 C 323.2 28.8 322.9 28.9 322.5 28.9 C 324 29.3 325.8 29.6 327.7 29.9 C 328 29.9 328.4 30 328.7 30 C 329.8 30 330.9 30 332.1 30.1 C 332.5 30.1 332.9 30.1 333.2 30.1 C 334.3 30 335.1 30.1 335.9 30.4 L 337.2 30.9 C 337.2 30.9 336.9 31 336.8 31.1 L 337.8 31.4 L 345.5 30.8 L 347 31.3 L 349.3 31.3 C 349.4 31.3 349.6 31.3 349.8 31.4 C 350.2 31.5 350.6 31.7 351.1 31.8 C 351.5 32 352.4 32 353 32.2 C 353.6 32.4 354.2 32.4 355 32.5 C 355.1 32.6 355 32.7 354.8 32.8 C 354.7 32.9 354.3 33 354.3 33.1 C 354.3 33.2 354.1 33.3 353.8 33.4 C 353.6 33.5 353.2 33.5 352.7 33.5 C 351.3 33.8 349.6 33.9 347.7 34 C 347.5 34 347.4 34.1 347.3 34.1 C 347.2 34.1 347.1 34.1 347.1 34.2 C 347.1 34.3 347 34.4 346.7 34.4 C 346.5 34.5 346.1 34.6 345.7 34.6 C 345.5 34.6 345.4 34.6 345.4 34.6 C 345.2 34.6 345.1 34.7 345 34.7 C 345 34.7 345 34.8 345 34.8 C 345.1 34.9 345.2 34.9 345.4 35 C 345.5 35 345.7 35.1 346 35.1 C 346.3 35.2 346.6 35.2 347 35.3 C 346.9 35.3 346.6 35.3 346.7 35.4 C 346.8 35.5 346.8 35.6 346.7 35.6 C 346.7 35.7 346.5 35.8 346.2 35.8 L 348.1 36.6 C 349.2 36.7 350.3 36.9 351.2 37.1 C 351.2 37.1 351.1 37.2 351 37.2 C 350.9 37.2 350.8 37.2 350.6 37.2 C 350.2 37.2 349.7 37.3 349.2 37.3 C 348.9 37.3 348.7 37.3 348.5 37.4 C 348.3 37.4 348.2 37.5 348.2 37.5 L 349.3 37.8 C 348.9 37.9 348.7 37.9 348.4 38 C 348.6 38.1 348.8 38.2 349.1 38.2 C 349.4 38.3 349.7 38.4 350.2 38.5 C 350.3 38.5 350.4 38.5 350.5 38.5 C 350.6 38.5 350.7 38.5 350.8 38.5 C 351.6 38.4 352.6 38.6 353.5 38.8 C 354.5 38.9 355 39 355.7 39.2 L 357.1 39.2 C 357.4 39.2 357.7 39.3 358 39.4 C 358.2 39.5 358.4 39.5 358.5 39.6 C 358.4 39.7 357.8 39.7 357.4 39.7 C 356.5 39.8 355.3 39.8 354 39.6 C 353.7 39.6 353.4 39.6 353.1 39.6 C 352.4 39.7 351.8 39.7 351.2 39.7 C 350.8 39.7 350.4 39.8 350 39.8 C 349.9 40 351.4 40.1 350.6 40.2 C 350.9 40.2 351 40.3 351.1 40.3 C 352 40.4 353 40.4 353.8 40.4 C 355.3 40.4 357.1 40.4 358.9 40.6 C 360.8 40.8 362.7 40.8 364.3 40.8 C 365 40.8 365.7 40.8 366.4 40.9 C 367.2 41 368.1 41.1 368.9 41.1 C 369.1 41.1 369.4 41.1 369.7 41.1 C 370 41.1 370.3 41.2 370.6 41.2 C 370.5 41.3 370.3 41.3 370.3 41.3 C 371.1 41.6 371.5 41.9 372.7 42.2 C 373.6 42.3 374.6 42.4 375.1 42.3 C 375.7 42.2 375.5 42 374.4 41.7 C 374.6 41.7 374.9 41.7 375.2 41.7 C 375.5 41.8 375.7 41.8 375.9 41.9 L 376.9 42.2 L 377.8 42.4 C 377.7 42.5 377.6 42.6 377.6 42.7 C 377.5 42.9 377.6 43 377.9 43.1 C 378.1 43.2 378.2 43.3 378.3 43.4 C 378.9 43.7 379 44 378.8 44.2 C 378.3 44.5 377.7 44.9 376.8 45.2 C 376 45.4 375.5 45.8 374.8 46.1 C 374.4 46.2 373.9 46.4 373.4 46.5 C 372.4 46.7 371.3 46.9 370.4 47.2 C 369.4 47.4 368.2 47.6 367.1 47.8 C 365.5 48.1 363.7 48.3 361.8 48.4 C 360.6 48.6 359.4 48.7 358.3 48.9 C 357.1 49.1 355.6 49.3 353.9 49.3 C 352.4 49.4 351 49.6 349.9 49.8 C 349.8 49.8 349.7 49.8 349.6 49.9 C 349.4 50 348.8 50.2 347.9 50.2 C 348 50.3 348.1 50.4 348.1 50.4 C 348.3 50.5 348.3 50.6 348.2 50.6 C 348.1 50.7 348 50.7 347.7 50.7 C 347 50.8 346.5 50.8 346 51 C 345.9 51 345.8 51 345.7 51.1 C 345.7 51.1 345.7 51.2 345.9 51.2 C 345.9 51.3 346 51.4 345.9 51.4 C 345.8 51.5 345.6 51.5 345.4 51.5 C 344.8 51.6 344.2 51.6 343.5 51.6 C 342.1 51.7 340.4 51.7 338.7 51.6 C 338.5 51.6 338.3 51.7 338.1 51.6 C 336.8 51.5 335.6 51.5 334.7 51.6 C 333.6 51.6 332.5 51.6 331.3 51.6 C 329.6 51.6 328.1 51.7 326.7 51.8 C 325.1 51.7 324.3 51.8 322.9 51.8 C 321.7 51.9 320.6 51.9 319.5 52 C 317.7 52.1 316 52.1 314.3 52.2 C 312.6 52.3 311.2 52.4 309.8 52.5 C 309.3 52.6 308.4 52.5 308 52.6 C 307.7 52.7 307 52.7 306.4 52.8 L 304.6 52.9 C 304.3 52.9 304 52.9 303.6 52.9 C 302 52.9 300.8 53.1 299.3 53.1 L 299.1 53.1 C 296.3 53.4 293.2 53.5 289.8 53.5 C 287.8 53.6 285.6 53.6 283.4 53.7 C 282.9 53.8 281.7 53.6 281.1 53.8 C 280.4 53.9 279.4 53.8 278.6 53.8 C 277.7 53.8 276.9 53.9 276 53.9 C 275.3 53.9 274.6 53.9 274.2 54 C 273.1 54.2 271.8 54.2 270.3 54.3 C 268.4 54.3 266.5 54.4 264.5 54.4 C 264.6 54.5 264.4 54.6 264.2 54.6 C 263.9 54.7 263.5 54.7 263.1 54.7 C 260.9 54.8 259 54.9 256.8 54.9 L 256.3 54.9 L 249.8 55 C 248.1 55 246.4 55 244.7 55 C 244 55 244 55.1 243.5 55.1 C 243.4 55 243.2 55 243 55 L 243 55.1 L 235.6 55.2 C 232.7 55.3 229.7 55.3 226.6 55.3 C 225.8 55.3 225.1 55.3 224.5 55.4 C 223.9 55.4 223.3 55.4 222.6 55.4 C 221.8 55.4 220.9 55.3 220.1 55.3 C 218 55.4 215.7 55.4 213.3 55.3 C 211 55.3 209.2 55.4 207.1 55.4 C 205.7 55.3 204.3 55.3 202.8 55.3 C 202.1 55.3 201.2 55.2 200.5 55.2 C 199.8 55.1 199.5 55.1 199.4 55.2 C 199.1 55.3 198.3 55.2 197.7 55.2 C 196.4 55.2 196.3 55.2 195.9 54.8 L 197.4 54.7 C 197.8 54.7 198.3 54.7 198.8 54.7 C 199.3 54.7 199.9 54.8 200.4 54.8 C 200.6 54.9 200.8 54.9 201.1 54.9 C 201.3 54.9 201.5 54.9 201.7 54.9 C 203.2 54.9 204.7 54.9 206.2 54.8 L 206.4 54.8 L 206.4 54.5 C 206.2 54.5 206 54.5 205.8 54.4 L 198.4 54.2 C 196.7 54.2 195 54.1 193.3 54 C 191.6 54 190.7 54 189.4 53.9 C 188.9 53.9 188.3 53.9 187.8 53.8 C 187.8 53.8 187.8 53.8 187.8 53.7 C 187.9 53.7 187.9 53.6 187.7 53.5 C 187.4 53.5 187 53.4 186.7 53.4 C 186.3 53.3 186 53.3 185.7 53.3 C 184.2 53.3 182.5 53.1 180.9 52.9 L 180.4 53 C 178 52.9 175.6 52.8 173.2 52.8 C 172.7 52.7 172.2 52.7 171.7 52.6 C 171.1 52.5 170.6 52.4 170.1 52.3 C 169.5 52.3 169 52.2 168.4 52.2 C 168.6 52.2 168.8 52.1 169 52.1 C 169.2 52.1 169.4 52.1 169.5 52 C 169.6 52 169.5 51.9 169.4 51.8 C 169.3 51.7 169.2 51.6 169.6 51.6 C 169.9 51.6 170.2 51.6 170.3 51.5 C 170.4 51.4 170.4 51.3 170.3 51.2 C 170.2 51.2 170.2 51.1 170.1 51 L 170 51 C 169.5 50.8 168.4 50.7 167.7 50.6 C 167.3 50.5 166.9 50.5 166.6 50.5 C 165.8 50.5 165 50.4 164.1 50.4 C 163.7 50.4 163.3 50.3 162.9 50.3 C 162.3 50.2 162.2 50.2 161.9 49.9 C 162.4 49.9 162.8 49.9 163.1 49.8 C 163.3 49.7 163.4 49.6 163.2 49.5 C 162.8 49.2 162.3 48.9 160.3 48.7 C 160.9 48.7 161.6 48.7 162.2 48.7 C 162.4 48.7 162.5 48.6 162.6 48.6 C 162.6 48.6 162.6 48.5 162.6 48.5 C 162.5 48.4 162.4 48.4 162.2 48.4 C 162 48.3 161.8 48.3 161.6 48.3 C 160.6 48.1 159.4 48 158.4 47.9 C 157.5 47.9 156.8 47.9 155.7 47.9 L 154.5 47.8 C 154.6 47.8 154.4 47.7 154.4 47.7 C 154.7 47.5 155.1 47.4 155.4 47.2 C 154.9 47.1 154.4 47 154 46.8 C 153.7 46.7 153.5 46.6 153.4 46.5 C 153.4 46.4 153.4 46.4 153.5 46.4 C 153.5 46.3 153.6 46.3 153.7 46.3 C 154 46.3 154.3 46.2 154.4 46.2 C 154.6 46.1 154.6 46 154.6 46 L 153.6 45.6 C 150.8 45.4 148.1 45.3 145.4 45.2 L 143 45.1 C 142.7 45 142.8 45 143.1 45 C 143.4 45 144.1 45 144.7 45 C 145.1 45 145.5 45 145.9 45 C 146.2 44.9 146.4 44.9 146.5 44.8 L 145.7 44.4 C 145.7 44.4 145.8 44.3 146.2 44.3 C 146.5 44.3 146.7 44.2 146.8 44.2 C 146.9 44.1 146.9 44.1 146.8 44 C 146.8 43.9 146.8 43.9 146.9 43.8 C 147.5 43.8 148.2 43.8 148.8 43.8 C 149 43.8 149.3 43.8 149.4 43.8 C 149.6 43.7 149.7 43.7 149.8 43.6 C 149.8 43.6 149.7 43.5 149.6 43.4 C 149.5 43.4 149.3 43.3 149.1 43.2 C 148.1 43.2 147.3 43.2 146.7 43.2 C 146.5 43.3 146.2 43.3 145.8 43.3 C 145.4 43.3 144.9 43.3 144.4 43.2 C 143.9 43.2 143.3 43.2 142.9 43.2 C 142.5 43.2 142.1 43.2 142 43.3 C 141.4 43.3 141 43.3 140.5 43.2 C 139.9 43.2 139.4 43.2 138.9 43.2 C 138.2 43.2 137.4 43.2 136.6 43.2 C 134.2 43.1 131.9 43 129.6 43 C 129 43 128.4 43 127.8 43 C 127.2 43 126.8 43 126 42.9 C 125.9 42.9 125.7 42.9 125.6 42.9 C 125.5 42.9 125.4 42.9 125.3 42.9 C 123.9 43 122.4 43 120.7 42.9 C 118.4 42.9 116.1 42.9 113.8 42.8 C 113.1 42.9 112.4 42.9 111.8 42.9 C 111.4 42.9 110.9 42.9 110.4 43 C 110.1 43 109.7 42.9 109.8 43.1 C 109.8 43.2 109.3 43.1 108.9 43.1 C 107.8 43 106.7 42.9 105.5 42.8 C 104.4 42.7 103.3 42.7 102.2 42.7 C 101.5 42.7 100.7 42.7 99.8 42.5 C 99.8 42.5 99.9 42.4 100.1 42.3 C 99.3 42.2 98.4 42 97.5 41.9 C 96.6 41.8 95.6 41.7 94.8 41.7 L 93.6 41.3 C 93.3 41.3 93 41.3 92.7 41.3 C 92.4 41.2 92.1 41.2 91.9 41.3 C 91.7 41.3 91.5 41.2 91.3 41.2 C 91 41.2 90.8 41.1 90.7 41.1 C 90.5 41 90.2 41 89.9 41 C 89.6 40.9 89.3 40.9 89 40.9 C 88.2 40.9 87.4 40.8 86.5 40.7 C 86.3 40.6 86.2 40.5 86.1 40.4 C 86.1 40.4 86.1 40.3 86.3 40.3 C 86.5 40.2 86.7 40.1 86.7 40 C 86.7 39.9 86.6 39.8 86.4 39.7 C 86.3 39.6 86.3 39.5 86.3 39.5 C 86.4 39.4 86.5 39.3 86.6 39.3 C 87.3 39.1 87.1 39 86.1 38.7 C 85.9 38.6 85.7 38.6 85.4 38.5 C 85.2 38.5 85 38.5 84.7 38.4 C 84.1 38.4 83.5 38.4 83 38.3 C 82.7 38.3 82.3 38.3 82 38.3 C 80.2 38.2 79.9 38.1 79.3 37.8 L 78.9 37.7 C 78.1 37.5 77.2 37.4 76.3 37.3 C 75.4 37.2 74.6 37.1 73.8 37.1 C 73.5 37.1 73.1 37.1 72.7 37 C 71.6 36.9 70.4 36.8 69.3 36.7 C 68.6 36.7 67.8 36.6 67.1 36.5 C 66.4 36.4 65.8 36.3 65.3 36.1 C 64.8 36 64.2 35.9 63.6 35.8 C 62.8 35.7 62.7 35.6 63.2 35.5 C 63.6 35.4 64.3 35.3 64.9 35.2 C 65.2 35.2 65.3 35.1 65.3 35.1 C 65.4 35 65.3 34.9 65.1 34.9 C 65 34.7 65 34.6 65.1 34.5 C 65.1 34.4 65.1 34.4 65 34.3 C 64.9 34.3 64.8 34.2 64.6 34.2 C 64.4 34.1 64.2 34 64 34 C 63.7 33.9 63.4 33.9 63.2 33.9 C 62 33.7 60.8 33.6 59.7 33.5 C 59.2 33.4 58.7 33.4 58.2 33.3 C 57.2 33.1 56.1 33 55 32.9 C 54.5 32.8 54 32.7 53.7 32.6 C 52.5 32.4 51.4 32.1 50.4 31.8 C 50.1 31.7 49.8 31.6 49.5 31.5 C 49.1 31.4 48.7 31.3 48.3 31.3 C 47.9 31.2 47.6 31.1 47.4 31.1 C 47.2 30.9 47.1 30.8 47.3 30.7 C 47.5 30.6 47.8 30.5 48.2 30.4 C 48.7 30.4 49.1 30.3 49.5 30.2 C 49.9 30.2 50.5 30.1 51.1 30.1 C 51.8 30.1 52.4 30 52.6 29.9 C 50.7 29.6 48.8 29.3 47 29.4 L 45.7 29.1 C 45.7 29.1 45.8 29 45.8 28.9 C 46.2 28.8 46.3 28.6 46.1 28.4 C 46 28.3 46 28.2 46.2 28.2 C 46.3 28.1 46.5 28.1 46.8 28 C 48.7 27.8 50.9 27.6 52.6 27.4 C 53.2 27.3 53.8 27.3 54.5 27.3 C 55.2 27.3 55.2 27.2 54.4 27 C 53.9 26.9 53.5 26.9 53 26.8 C 51 26.8 50.2 27.1 47.9 27 L 46.8 26.6 C 46.5 26.5 46.2 26.5 45.9 26.5 L 42.1 26.7 C 41.7 26.7 41.5 26.8 41.3 26.8 C 41.2 26.9 41.1 27 41.2 27 C 41.2 27.1 41.2 27.2 41.1 27.3 C 41 27.4 41 27.4 41.2 27.5 C 41.6 27.7 41.1 27.7 40.8 27.7 C 40.7 27.8 40.6 27.7 40.5 27.7 C 40.4 27.7 40.3 27.7 40.2 27.7 C 40 27.7 39.9 27.7 39.8 27.7 C 39.7 27.6 39.7 27.6 39.6 27.6 C 39 27.4 38.5 27.3 37.9 27.1 C 38.3 26.9 37.9 26.6 38.5 26.5 C 38.6 26.5 38.6 26.4 38.6 26.4 C 38.6 26.3 38.5 26.3 38.4 26.2 C 38.1 26.1 38 26 38 25.9 C 38.1 25.8 38.2 25.7 38.5 25.7 L 38.6 25.6 C 37.8 25.4 38 25.2 37.7 25 L 36.9 24.9 C 35 24.5 35 24.5 33.4 24.5 C 33.1 24.4 33.5 24.4 33.8 24.4 L 36.4 24.2 C 38.1 24.1 39.9 24.1 41.8 24 C 43.7 24 45.9 23.9 47.9 23.8 C 48 23.8 48 23.7 48.1 23.7 C 48.1 23.7 48.2 23.7 48.1 23.7 C 48.1 23.6 48 23.6 47.8 23.6 C 47.7 23.5 47.6 23.5 47.4 23.5 C 46.8 23.4 46.2 23.4 45.5 23.3 L 44.2 23.2 L 43.8 23.1 C 43.6 23 43.4 22.9 43.1 22.8 C 42.8 22.7 42.5 22.7 42.2 22.7 C 41.9 22.7 41.7 22.7 41.4 22.7 C 40.8 22.7 40.2 22.7 39.6 22.8 C 39 22.8 38.7 22.9 38.2 22.9 C 37.1 22.9 36.1 22.9 35.1 22.9 C 34.3 23 33.5 23.1 32.8 23.3 C 32.4 23.3 32 23.4 31.3 23.3 C 30.9 23.2 30.6 23.2 30.4 23.1 C 30.2 23 30.1 22.9 30.2 22.9 C 30.2 22.8 30.3 22.8 30.5 22.8 C 30.7 22.7 30.9 22.7 31.2 22.7 C 31.9 22.7 32.6 22.7 33.2 22.6 C 34.1 22.5 35.1 22.5 36.3 22.5 C 36.7 22.5 37 22.5 37.3 22.5 C 37.7 22.4 38 22.4 38.4 22.4 C 39.6 22.5 40.1 22.4 40.9 22.3 C 41.1 22.3 41.3 22.2 41.3 22.2 C 41.3 22.1 41.3 22 41.1 21.9 C 40.8 21.7 40.4 21.6 39.9 21.4 C 39.6 21.3 39.3 21.2 39 21.2 C 38.6 21.1 38.2 21 37.8 21 C 37.6 20.9 37.4 20.8 37.4 20.7 C 37.4 20.6 37.6 20.5 37.8 20.5 C 38.4 20.3 38.9 20.2 40.2 20.3 C 40.8 20.3 41.4 20.3 41.9 20.3 C 43.1 20.3 44.4 20.3 45.8 20.5 C 46.2 20.5 46.5 20.5 46.8 20.5 C 49.2 20.6 51.5 20.6 53.8 20.7 C 55 20.7 56.2 20.7 57.5 20.7 C 60.5 20.8 63.2 20.7 66 20.8 C 67.5 20.8 68.9 20.7 70 20.6 C 70.2 20.6 70.4 20.5 70.6 20.5 C 69.8 20.3 69 20.2 68.2 20.1 C 67.4 20.1 66.6 20 66 20.1 C 65.6 20.1 65.1 20.1 64.6 20.1 C 64.1 20.1 63.5 20 63 19.9 L 64.5 19.9 C 65.5 19.9 66.6 19.8 67.6 19.8 C 69.2 19.8 70.7 19.7 72.3 19.6 C 73.6 19.6 74.8 19.5 75.8 19.4 C 76.6 19.3 77.4 19.2 78.3 19.2 C 79 19.2 79 19.2 79.4 19 C 79.1 18.9 78.6 18.8 78.2 18.8 C 75.8 18.8 73.5 18.7 71.3 18.8 C 70.3 18.8 69.3 18.9 68.5 19 C 68.3 19 67.8 19 67.4 19 C 66.2 18.9 65 18.9 63.9 19 C 62.3 19 60.6 19 58.7 18.9 C 58.4 18.8 58.8 18.9 58.8 18.8 C 60.2 18.8 61.6 18.7 63.1 18.6 C 63.5 18.6 63.9 18.6 64.3 18.6 C 66 18.6 67.4 18.5 68.3 18.3 C 68.4 18.3 69 18.3 69.2 18.2 C 69.4 18.2 69.5 18.1 69.5 18.1 C 69.1 17.9 68.7 17.9 68.3 17.9 C 67.4 17.9 66.4 18 65.5 18 C 64.7 18.1 63.7 18.1 62.7 18.1 C 62 18 61.4 18.1 60.6 18.1 C 60.2 18 59.8 18 59.4 18 C 59.9 17.9 60.5 17.8 61.3 17.8 C 61.8 17.7 62.6 17.7 62.7 17.6 C 62.4 17.4 62.1 17.4 61.8 17.5 C 61.3 17.5 60.8 17.5 60.4 17.5 C 59.4 17.5 58.3 17.5 57.1 17.5 C 56.5 17.5 56 17.5 55.4 17.5 C 54.2 17.5 53.1 17.6 52 17.6 C 49.7 17.6 47.7 17.7 45.5 17.8 C 45 17.8 44.6 17.8 44 17.7 C 43.3 17.7 43.3 17.7 43.2 17.6 C 43.1 17.5 43 17.5 43.1 17.4 C 43.2 17.4 43.5 17.3 43.8 17.3 C 45.7 17.2 47.6 17.1 49.3 17 C 50 17 50.7 16.9 51.2 16.8 C 51.7 16.7 52.2 16.7 52.8 16.7 C 53.6 16.6 54.5 16.6 55.4 16.6 C 55.8 16.6 56.2 16.5 56.5 16.5 C 56.7 16.4 56.9 16.4 57 16.3 L 55.9 16 C 55.7 16 55.5 16 55.4 16 L 46.1 16.2 L 45.2 16.2 C 44.2 16.1 43.9 16.1 43 15.8 C 45.2 15.7 46.9 15.5 47.9 15.1 C 47.7 15.1 47.4 15 47.2 15 C 45.4 14.9 43.8 14.9 42.3 14.9 C 41.4 14.9 40.5 14.9 39.6 14.9 C 39.8 14.8 40.9 14.8 41.5 14.8 C 43.1 14.7 44.5 14.6 45.7 14.4 C 46.1 14.4 46.6 14.3 47.2 14.3 C 47.8 14.3 48.3 14.2 48.6 14.2 C 49 14.1 49.2 14 49.2 13.9 C 49.3 13.8 49.4 13.7 49.6 13.6 C 49.3 13.4 48.7 13.3 48.1 13.2 C 47.5 13.1 46.9 13 46.3 13 C 45.1 13 43.8 12.9 42.5 12.7 C 41.8 12.7 41.2 12.6 40.6 12.6 C 40.1 12.6 39.5 12.6 38.9 12.5 C 38.4 12.4 37.9 12.3 37.5 12.2 C 36.9 12.1 36.5 11.9 36 11.8 C 35.5 11.6 34.9 11.4 34.4 11.2 C 33.9 11.2 33.4 11.2 32.9 11.2 C 32.5 11.2 32.1 11.2 31.7 11.1 C 31.2 11.1 30.8 11 30.4 10.9 C 30.7 10.8 30.9 10.8 31.2 10.7 C 30.8 10.6 30.5 10.4 30.4 10.3 C 30.3 10.2 30.2 10.1 30.3 10 C 30.4 9.9 30 9.7 29.9 9.6 C 29.7 9.5 29.6 9.4 29.8 9.3 C 29.9 9.3 30.1 9.2 30.5 9.2 C 30.9 9.2 31.3 9.1 31.5 9 C 31.6 9 31.7 9 31.7 8.9 C 31.7 8.9 31.6 8.8 31.5 8.8 C 31.4 8.8 31.3 8.7 31.1 8.7 C 31 8.7 30.8 8.6 30.6 8.6 C 30.1 8.5 29.5 8.5 29 8.5 C 28.1 8.5 27.2 8.4 26.4 8.4 C 25.4 8.4 24.4 8.4 23.4 8.2 C 22.5 8.1 21.6 8 21.2 7.8 C 20.8 7.6 20 7.6 19.5 7.4 C 19.8 7.3 20.3 7.2 21.1 7.1 C 21.6 7.1 22 7.1 22.3 7 C 22.6 7 22.7 6.9 22.8 6.8 L 21.1 6.3 C 19.8 6.1 19.1 6.3 17.6 6.2 L 19.1 6 C 19.1 6 19.1 6 19.1 6 C 19 5.6 18.8 5.6 17.2 5.4 L 16.4 5.3 L 15 5.2 C 14.8 5.1 14.7 5 14.6 5 C 14.5 4.9 14.6 4.8 14.7 4.8 C 14.8 4.7 14.9 4.6 14.8 4.5 C 14.7 4.4 14.7 4.3 14.8 4.3 C 14.9 4.2 15.1 4.2 15.4 4.2 C 15.7 4.2 15.7 4.1 15.8 4.1 C 16 4 16.2 3.9 16.5 3.9 C 16.8 3.9 17.1 3.9 17.6 3.9 C 18.8 3.9 19.9 3.9 21 3.8 L 20.8 3.8 C 21.9 3.8 22.9 3.8 23.8 3.8 C 24.8 3.7 25.9 3.8 26.9 3.7 C 27.7 3.8 28.3 3.7 28.6 3.6 C 28.8 3.4 29.8 3.5 30.6 3.5 C 31.1 3.5 31.5 3.5 31.9 3.5 C 32.5 3.5 33.2 3.5 33.9 3.6 C 34.1 3.6 34.3 3.6 34.5 3.6 C 36.4 3.6 38.2 3.7 40 3.7 C 40.5 3.7 40.9 3.7 41.5 3.8 C 41.7 3.8 41.9 3.8 42 3.8 C 44.9 3.7 48.2 3.9 51 3.8 C 51.3 3.8 51.7 3.8 52.1 3.8 C 53 3.8 53.8 3.8 54.4 3.7 C 54.7 3.7 55 3.6 55.5 3.6 C 55.9 3.6 56.4 3.7 56.9 3.7 C 57.8 3.8 58.5 3.8 59.2 3.7 C 60.4 3.7 61.7 3.7 63.1 3.7 C 63.5 3.7 63.8 3.7 64.1 3.6 C 64.4 3.6 64.6 3.5 64.7 3.5 C 64.4 3.3 64 3.3 63.7 3.3 C 62.3 3.3 61 3.3 59.7 3.2 C 58.5 3.2 57.4 3.2 56.3 3.2 C 55.8 3.2 55.1 3.2 54.5 3.1 C 53.7 3 52.9 2.9 52.2 3 C 51.7 3 51.2 2.9 50.6 2.9 C 50.3 2.9 49.9 2.9 49.6 2.8 C 49.5 2.8 49.3 2.7 49.2 2.7 C 49 2.7 48.9 2.7 48.7 2.7 C 48.6 2.7 48.5 2.7 48.4 2.7 C 48.3 2.7 48.2 2.7 48.2 2.8 C 47.6 2.9 46.5 2.8 45.5 2.8 C 44.1 2.5 43 2.7 41.6 2.5 C 41.5 2.5 41.4 2.5 41.3 2.5 C 41.2 2.5 41.1 2.5 41.1 2.5 C 38.4 2.6 35.4 2.5 32.6 2.6 C 32.3 2.6 31.9 2.6 31.6 2.5 C 29.2 2.3 26.9 2.2 25.2 2.3 C 25 2.3 24.7 2.3 24.5 2.3 C 23.3 2.2 22.1 2.2 21.2 2.2 C 19.6 2.2 18.1 2.2 16.5 2.2 C 15.4 2.2 14.5 2.2 13.8 2.3 C 13.7 2.3 13.2 2.3 12.9 2.3 C 12.7 2.2 12.5 2.1 12.3 2 C 12.1 1.9 11.8 1.8 11.4 1.7 C 11 1.6 10.6 1.5 10.1 1.4 C 9.3 1.3 9.2 1.2 9.8 1.1 C 11.3 0.9 13.1 0.9 15.2 0.9 C 17 0.9 18.8 0.9 20.6 0.9 C 21.6 0.9 22.7 1 23.7 1 C 24.1 1 24.4 1 24.8 1 C 25.2 1.1 25.6 1.1 26 1.1 C 27.3 1.1 28.7 1.1 30.1 1.2 C 30.7 1.2 31.2 1.2 31.7 1.2 C 32.8 1.2 34.1 1.2 35.4 1.3 C 36.2 1.3 37 1.3 37.8 1.3 C 38.1 1.3 38.3 1.3 38.5 1.3 C 40.8 1.5 42.4 1.4 44.5 1.4 C 45.5 1.5 46.4 1.5 47.3 1.4 C 49.1 1.4 50.9 1.5 52.7 1.5 C 55.1 1.6 57.4 1.6 59.7 1.6 C 60.2 1.6 60.6 1.6 61 1.6 C 63.1 1.5 65.3 1.5 67.7 1.6 C 68.2 1.6 68.7 1.6 69.1 1.6 C 69.5 1.5 69.8 1.5 70 1.4 C 70.1 1.3 70 1.3 69.9 1.2 C 69.6 1.1 69.2 1 68.9 0.9 L 55.7 0.6 C 55.2 0.6 54.7 0.6 54.1 0.6 C 52.6 0.6 51 0.5 49.4 0.5 C 47.8 0.4 46.3 0.4 44.7 0.4 C 44.3 0.4 43.8 0.4 43.3 0.4 C 40.1 0.3 36.9 0.2 33.9 0.2 C 32.6 0.2 31.2 0.1 29.9 0.1 C 28.6 0.1 26.8 0.1 25.2 0.1 L 20.4 0.1 C 19.5 0.1 18.5 0.1 17.6 0.1 C 16.5 -0.3 16.1 -0.4 14.6 -0.6 C 14.1 -0.7 13.6 -0.7 13.1 -0.7 C 11.7 -0.7 9.8 -0.8 8.4 -0.8 C 7.6 -0.8 6.8 -0.8 6.3 -0.7 C 5.9 -0.6 5.4 -0.5 4.8 -0.5 C 3.3 -0.8 3.1 -1.1 4.3 -1.2 C 4.6 -1.2 5 -1.2 5.3 -1.2 C 5.4 -1.2 5.6 -1.3 5.8 -1.3 C 6 -1.3 6.2 -1.3 6.5 -1.2 C 7.3 -1.2 8 -1.2 8.6 -1.2 C 9.2 -1.2 9.9 -1.2 10.7 -1.2 C 11.3 -1.1 11.8 -1.2 12.3 -1.2 C 12.8 -1.3 13.2 -1.3 13.9 -1.3 C 14.1 -1.2 14.2 -1.2 14.3 -1.2 C 14.5 -1.2 14.6 -1.2 14.7 -1.2 C 15.5 -1.3 16.5 -1.3 17.5 -1.2 C 19.2 -1.2 20.7 -1.2 22.1 -1.2 C 22.9 -1.3 23.6 -1.3 24.2 -1.5 C 24.3 -1.5 24.5 -1.5 24.8 -1.5 C 26.2 -1.5 27.7 -1.4 29.2 -1.3 C 29.8 -1.2 30.4 -1.2 30.9 -1.1 C 32.1 -1 33.2 -1 34.2 -1 C 35.8 -1 37.3 -1 39 -0.9 C 40 -0.9 40.9 -0.9 41.9 -0.9 C 42.8 -0.9 43.8 -0.8 44.9 -0.8 C 45.9 -0.7 46.8 -0.8 47.5 -0.9 C 47.7 -0.9 47.9 -1 48.1 -1 C 46.5 -1.2 44.9 -1.4 43.6 -1.3 C 43.1 -1.3 42.7 -1.3 42.2 -1.4 L 42.2 -1.4 C 42.1 -1.4 41.9 -1.4 41.7 -1.4 C 41.5 -1.4 41.4 -1.4 41.2 -1.4 C 41.2 -1.6 41.3 -1.7 41.4 -1.7 C 42.4 -1.7 43.3 -1.7 44.3 -1.7 C 45.1 -1.7 46.1 -1.6 46.8 -1.6 C 48.2 -1.5 49 -1.7 50.2 -1.6 C 51.4 -1.6 52.7 -1.5 53.9 -1.4 C 55 -1.4 56 -1.4 57 -1.4 C 57.3 -1.4 57.7 -1.4 58.1 -1.4 C 58.7 -1.4 59.2 -1.4 59.7 -1.4 C 60.1 -1.4 60.5 -1.5 60.6 -1.6 C 60.5 -1.7 60.3 -1.8 60 -1.9 C 60.5 -2 61.1 -2 61.9 -2 L 63 -2 C 63.3 -2 63.6 -2 63.7 -2.1 C 63.8 -2.1 63.8 -2.2 63.6 -2.3 C 61.5 -2.6 61.4 -2.7 59.9 -2.4 L 57.8 -2.5 L 57.8 -2.5 Z M 85.8 -1.6 L 85.7 -1.6 L 85.8 -1.6 Z M 344 36.6 L 343.9 36.7 L 344 36.6 L 344.3 36.7 L 344.4 36.6 L 344 36.6 Z M 293.6 9.8 C 293.1 9.7 292.6 9.7 292.1 9.6 C 291.9 9.6 291.8 9.6 291.7 9.6 C 291.6 9.6 291.5 9.6 291.5 9.6 C 291.4 9.7 291.7 9.8 292 9.8 C 292.3 9.8 292.6 9.9 292.9 9.9 C 293.2 9.9 293.5 9.9 293.7 9.8 L 294 9.8 L 293.6 9.8 Z M 40.7 26.1 C 41.1 26.1 41.4 26.1 41.6 26.1 C 42.9 26 44.1 25.9 45.4 25.9 C 47 25.8 48.9 25.7 50.9 25.7 C 51.7 25.8 52.4 25.7 52.8 25.6 C 53.1 25.6 53.5 25.5 53.9 25.5 L 59.3 25.4 C 59.6 25.4 59.9 25.3 60.1 25.3 C 59.7 25.2 59.3 25.2 59.1 25.1 C 58.8 25.1 58.4 25.2 58.2 25.2 C 57.9 25.3 57.4 25.3 56.9 25.3 C 56.3 25.3 55.8 25.2 55.3 25.2 C 54.3 25.2 53.3 25.3 52.3 25.3 C 51.9 25.5 50.8 25.4 49.8 25.4 L 49.1 25.4 C 46.6 25.5 44.3 25.6 42.1 25.8 C 41.6 25.8 41.3 25.9 41 25.9 C 40.9 26 40.8 26 40.9 26.1 L 40.7 26.1 L 40.7 26.1 Z M 150.3 44.4 C 150.9 44.4 151.5 44.4 152.2 44.4 C 152.6 44.5 153.1 44.5 153.6 44.5 C 156.1 44.6 158.7 44.7 161.4 44.8 C 161.7 44.8 162 44.8 162.3 44.8 L 164.5 44.8 C 165.2 44.8 165.2 44.8 164.7 44.5 C 164.3 44.4 163.9 44.4 163.5 44.3 C 163.2 44.3 162.8 44.2 162.7 44.3 C 162.1 44.4 161.1 44.3 160.2 44.3 C 157.6 44.2 154.9 44.1 152.3 44 C 151.7 44 151.2 44 150.7 44 C 150.3 44 150 44 149.8 44 C 149.7 44 149.7 44 149.6 44 C 149.6 44 149.5 44.1 149.5 44.1 C 149.5 44.1 149.5 44.1 149.6 44.1 C 149.6 44.1 149.6 44.2 149.7 44.2 C 149.9 44.3 150.2 44.3 150.4 44.4 L 150.3 44.4 Z M 169.4 1.5 L 171.9 1.5 C 172.2 1.5 172.5 1.4 172.8 1.5 C 174.6 1.5 176.2 1.5 177.6 1.4 C 178.1 1.4 178.7 1.4 179.3 1.4 C 181.2 1.5 183 1.5 184.6 1.4 C 185.7 1.4 186.6 1.4 187.6 1.3 C 187.6 1.3 187.7 1.3 187.7 1.2 C 187.7 1.2 187.7 1.2 187.6 1.1 C 187.6 1.1 187.6 1.1 187.5 1.1 C 187.5 1.1 187.4 1.1 187.4 1 C 187.3 1 187.2 1 187.1 1 C 187 1 186.9 1 186.8 1 C 185.7 0.9 184.6 0.8 183.7 0.9 C 182.8 0.9 181.9 0.9 180.9 0.9 C 179.9 0.9 179.3 1 178.1 0.9 C 177.6 0.9 177.2 0.9 176.9 1 C 176.3 1 175.4 1 174.5 1 C 173.9 0.9 173.4 0.9 172.9 0.9 C 171.7 0.9 170.5 1 169.4 1 C 169 1.1 168.7 1.1 168.3 1 L 162.7 1 C 161.4 0.9 160 0.9 158.7 0.9 C 157.6 0.9 156.6 0.9 155.8 0.9 C 154.8 1 153.8 1 152.7 1 C 151 1 149.3 1 147.4 1 C 146.2 1 145 1 143.8 1 C 143.1 0.9 142.6 1 142.3 1 C 142.1 1.1 141.6 1 141.2 1 C 139 0.9 137.1 0.9 135.3 0.9 C 135.1 1 134.9 1 134.6 1 C 133 1 131.2 0.9 129.6 0.9 C 129.2 0.9 128.8 1 128.5 1 C 128.5 1 128.6 1.1 128.8 1.1 C 128.9 1.1 129.1 1.2 129.3 1.2 C 130.8 1.3 132.3 1.4 133.6 1.4 C 135.9 1.3 138.2 1.4 140.6 1.5 C 142.5 1.5 144.2 1.5 145.6 1.4 C 146.7 1.3 148.2 1.4 149.7 1.5 C 150.4 1.6 151 1.6 151.5 1.6 C 152 1.6 152.6 1.6 153.3 1.6 C 154.6 1.7 155.8 1.7 157 1.7 C 158.2 1.7 159.3 1.6 160.5 1.6 C 161.7 1.6 163.5 1.6 165 1.5 C 166.5 1.5 167.9 1.5 169.4 1.5 Z M 63.2 -1.7 C 63.3 -1.6 63.8 -1.5 64.3 -1.4 C 66.1 -1.2 67.8 -1.1 69.3 -1.2 C 70.1 -1.2 71.1 -1.2 72.2 -1.1 C 73.5 -1 74.7 -1 75.5 -1 C 75.8 -1.1 75.9 -1.1 76 -1.1 C 76.1 -1.2 76.1 -1.2 76.1 -1.2 C 76 -1.3 75.9 -1.3 75.8 -1.3 C 75.6 -1.3 75.5 -1.4 75.4 -1.4 L 69.5 -1.6 L 68.5 -1.6 C 66.6 -1.7 64.8 -1.8 63.2 -1.7 Z M 74.8 1 C 75.7 1.3 75.7 1.3 76.1 1.3 C 78.4 1.6 80.7 1.7 82.7 1.7 C 83.1 1.7 83.5 1.7 83.8 1.7 C 83.9 1.7 84 1.6 84 1.6 C 84 1.6 84 1.5 83.9 1.5 L 83.1 1.3 C 81.8 1.2 80.5 1.1 79.2 1.1 C 77.7 1 76.4 1 74.9 1 L 74.8 1 Z M 150.2 43.1 C 151 43.5 151.1 43.5 152.5 43.6 C 153.5 43.7 154.4 43.7 155.4 43.7 C 156.5 43.7 157.6 43.8 158.7 43.8 C 159 43.8 159.2 43.8 159.4 43.7 C 159.5 43.7 159.6 43.7 159.5 43.6 C 159.3 43.5 159.1 43.5 158.8 43.4 C 158.6 43.4 158.3 43.3 158 43.3 L 157.4 43.3 C 156.7 43.3 155.9 43.3 155.2 43.3 C 154.7 43.3 154.2 43.3 153.6 43.2 C 153.1 43.2 152.5 43.1 151.9 43 L 150.2 43.1 Z M 79.3 -1.2 C 79.5 -1.2 79.8 -1.1 80.1 -1 C 81.2 -0.9 82.3 -0.8 83.3 -0.8 C 83.8 -0.8 84.2 -0.8 84.7 -0.8 C 85.5 -0.7 86.4 -0.6 87.1 -0.6 C 87.1 -0.6 87.3 -0.7 87.4 -0.7 L 87.6 -0.9 C 87.2 -1 86.8 -1 86.5 -1 C 85.2 -1.1 84 -1.2 82.8 -1.2 C 81.5 -1.3 81.1 -1.3 80.3 -1.3 C 79.9 -1.3 79.6 -1.3 79.3 -1.2 Z M 52.3 29.2 L 53.9 29.7 C 54.4 29.7 54.9 29.8 55.3 29.7 C 55.7 29.7 55.9 29.6 56 29.5 C 56.2 29.5 56.2 29.4 56.1 29.4 C 56 29.3 55.7 29.2 55.4 29.2 C 55.2 29.1 54.8 29 54.5 29 C 54.1 28.9 53.8 28.9 53.4 28.9 L 52.3 29.2 Z M 65.9 26.7 C 64.8 26.6 63.8 26.6 62.9 26.6 C 62.3 26.7 61.6 26.6 60.7 26.6 C 59.3 26.4 57.9 26.4 56.8 26.4 C 56.8 26.4 56.7 26.5 56.6 26.5 C 56.4 26.5 57.1 26.6 57.3 26.6 C 58.4 26.7 59.6 26.7 60.6 26.7 C 61.2 26.7 61.9 26.7 62.6 26.8 C 63.5 26.8 64.4 26.8 65.2 26.8 C 65.2 26.8 65.5 26.8 65.9 26.7 L 65.9 26.7 Z M 180.1 0.6 C 179.5 0.5 179 0.4 178.4 0.4 C 177.9 0.3 177.3 0.3 176.9 0.3 C 176.5 0.3 176.2 0.3 176 0.4 C 175.8 0.4 175.8 0.5 175.8 0.6 C 176.2 0.6 176.7 0.7 177 0.7 C 178 0.7 178.8 0.7 180.1 0.6 Z M 275.7 8.6 C 275.2 8.5 274.8 8.4 274.4 8.4 C 273.9 8.4 273.5 8.4 273.2 8.4 C 273 8.4 273.1 8.5 273.1 8.5 C 273.1 8.5 273.1 8.5 273.1 8.6 C 273.1 8.6 273.1 8.6 273.2 8.6 C 273.2 8.6 273.3 8.6 273.4 8.6 C 273.4 8.7 273.5 8.7 273.6 8.7 C 274 8.7 274.5 8.7 274.8 8.7 C 275.2 8.7 275.5 8.6 275.6 8.6 L 275.7 8.6 Z M 282.1 9.6 C 282 9.6 281.9 9.6 281.7 9.5 C 281.5 9.5 281.3 9.4 281.1 9.4 C 280.7 9.4 280.4 9.4 280.1 9.5 C 279.7 9.5 280 9.6 280.4 9.7 C 280.6 9.7 280.8 9.7 281 9.8 C 281.2 9.8 281.3 9.8 281.5 9.8 C 281.7 9.8 281.8 9.8 281.9 9.7 C 282 9.7 282 9.7 282.1 9.7 L 282.1 9.6 Z M 95.9 -0.8 C 95 -0.9 94.3 -0.9 93.4 -0.9 C 92.6 -1 92.4 -1 92.5 -0.9 C 92.7 -0.8 93.2 -0.8 93.6 -0.8 C 94 -0.7 94.5 -0.7 94.9 -0.7 C 95.3 -0.7 95.7 -0.7 95.9 -0.8 Z M 295.1 26.3 C 294.6 26.3 294.1 26.3 293.6 26.3 C 293.5 26.3 293.5 26.3 293.5 26.3 C 293.5 26.3 293.5 26.4 293.5 26.4 C 293.5 26.4 293.8 26.5 294 26.5 C 294.7 26.6 294.8 26.5 295.1 26.3 Z M 366.6 41.3 C 367 41.4 367.1 41.4 367.4 41.5 C 367.5 41.5 367.6 41.5 367.8 41.5 C 367.9 41.5 368 41.5 368.1 41.5 C 368.2 41.5 368.3 41.5 368.2 41.4 C 368.2 41.4 367.8 41.3 367.7 41.3 C 367.3 41.3 367 41.3 366.6 41.3 Z M 79.7 -1.7 C 79 -1.8 78.3 -1.8 77.8 -1.7 C 78.9 -1.6 78.9 -1.6 79.7 -1.7 Z M 91.4 -0.6 C 90.7 -0.8 90.3 -0.9 89.9 -0.8 C 89.9 -0.8 89.8 -0.8 89.8 -0.8 C 89.8 -0.8 89.8 -0.8 89.8 -0.7 C 89.9 -0.7 90 -0.7 90.1 -0.7 C 90.1 -0.7 90.2 -0.6 90.4 -0.6 C 90.7 -0.6 91.1 -0.6 91.4 -0.6 Z M 129.2 -0.6 C 129.2 -0.6 129.2 -0.6 129 -0.6 C 129 -0.7 128.9 -0.7 128.9 -0.7 C 128.8 -0.7 128.7 -0.7 128.7 -0.7 C 128.7 -0.7 128.7 -0.7 128.6 -0.6 L 129.2 -0.6 Z M 155.4 45.6 L 155 45.6 L 155.2 45.7 L 155.7 45.7 L 155.4 45.6 Z M 303.9 9.2 C 303.7 9.2 303.6 9.2 303.5 9.2 C 303.5 9.2 303.5 9.2 303.5 9.2 C 303.5 9.2 303.5 9.3 303.5 9.3 C 303.5 9.3 303.7 9.3 303.8 9.3 L 303.9 9.2 Z M 279.3 9.5 C 279.2 9.5 279.1 9.5 279 9.5 L 279 9.6 L 279.3 9.6 L 279.3 9.5 Z M 65 17.5 C 64.9 17.5 64.8 17.4 64.7 17.4 L 64.5 17.4 C 64.5 17.4 64.7 17.5 64.8 17.5 C 64.9 17.5 64.9 17.5 65 17.5 Z"
            fill="#0916ce" />
    </g>
</svg>